<svg width="357" height="134" viewBox="0 0 357 134" fill="none" xmlns="http://www.w3.org/2000/svg">
<path d="M132.928 46.2H143.04V65.016H163.328V46.2H173.44V91H163.328V73.144H143.04V91H132.928V46.2ZM204.167 45.56C207.58 45.56 210.738 46.136 213.639 47.288C216.583 48.44 219.143 50.0613 221.319 52.152C223.495 54.2427 225.18 56.6747 226.375 59.448C227.612 62.2213 228.231 65.2507 228.231 68.536C228.231 71.7787 227.612 74.808 226.375 77.624C225.18 80.44 223.495 82.9147 221.319 85.048C219.143 87.1387 216.583 88.7813 213.639 89.976C210.738 91.128 207.58 91.704 204.167 91.704C200.754 91.704 197.575 91.128 194.631 89.976C191.73 88.7813 189.191 87.1387 187.015 85.048C184.839 82.9147 183.132 80.44 181.895 77.624C180.7 74.808 180.103 71.7787 180.103 68.536C180.103 65.2507 180.7 62.2213 181.895 59.448C183.132 56.632 184.839 54.2 187.015 52.152C189.191 50.0613 191.73 48.44 194.631 47.288C197.575 46.136 200.754 45.56 204.167 45.56ZM204.295 54.072C202.418 54.072 200.626 54.4347 198.919 55.16C197.255 55.8853 195.783 56.9093 194.503 58.232C193.266 59.5547 192.284 61.0907 191.559 62.84C190.834 64.5893 190.471 66.488 190.471 68.536C190.471 70.584 190.834 72.504 191.559 74.296C192.284 76.0453 193.287 77.6027 194.567 78.968C195.847 80.2907 197.319 81.336 198.983 82.104C200.647 82.8293 202.418 83.192 204.295 83.192C206.172 83.192 207.922 82.8293 209.543 82.104C211.207 81.336 212.658 80.2907 213.895 78.968C215.132 77.6027 216.092 76.0453 216.775 74.296C217.5 72.504 217.863 70.584 217.863 68.536C217.863 66.488 217.5 64.5893 216.775 62.84C216.092 61.0907 215.132 59.5547 213.895 58.232C212.658 56.9093 211.207 55.8853 209.543 55.16C207.922 54.4347 206.172 54.072 204.295 54.072ZM234.866 46.2H244.978V82.488H264.114V91H234.866V46.2ZM291.042 45.56C294.455 45.56 297.613 46.136 300.514 47.288C303.458 48.44 306.018 50.0613 308.194 52.152C310.37 54.2427 312.055 56.6747 313.25 59.448C314.487 62.2213 315.106 65.2507 315.106 68.536C315.106 71.7787 314.487 74.808 313.25 77.624C312.055 80.44 310.37 82.9147 308.194 85.048C306.018 87.1387 303.458 88.7813 300.514 89.976C297.613 91.128 294.455 91.704 291.042 91.704C287.629 91.704 284.45 91.128 281.506 89.976C278.605 88.7813 276.066 87.1387 273.89 85.048C271.714 82.9147 270.007 80.44 268.77 77.624C267.575 74.808 266.978 71.7787 266.978 68.536C266.978 65.2507 267.575 62.2213 268.77 59.448C270.007 56.632 271.714 54.2 273.89 52.152C276.066 50.0613 278.605 48.44 281.506 47.288C284.45 46.136 287.629 45.56 291.042 45.56ZM291.17 54.072C289.293 54.072 287.501 54.4347 285.794 55.16C284.13 55.8853 282.658 56.9093 281.378 58.232C280.141 59.5547 279.159 61.0907 278.434 62.84C277.709 64.5893 277.346 66.488 277.346 68.536C277.346 70.584 277.709 72.504 278.434 74.296C279.159 76.0453 280.162 77.6027 281.442 78.968C282.722 80.2907 284.194 81.336 285.858 82.104C287.522 82.8293 289.293 83.192 291.17 83.192C293.047 83.192 294.797 82.8293 296.418 82.104C298.082 81.336 299.533 80.2907 300.77 78.968C302.007 77.6027 302.967 76.0453 303.65 74.296C304.375 72.504 304.738 70.584 304.738 68.536C304.738 66.488 304.375 64.5893 303.65 62.84C302.967 61.0907 302.007 59.5547 300.77 58.232C299.533 56.9093 298.082 55.8853 296.418 55.16C294.797 54.4347 293.047 54.072 291.17 54.072Z" fill="#D4AF37"/>
<g clip-path="url(#clip0_6_28)">
<path d="M78.6667 34.8667L47.4 46.2567V69.3784C47.4 88.5515 60.7274 106.434 78.6667 110.8C96.6059 106.434 109.933 88.5515 109.933 69.3784V46.2567L78.6667 34.8667ZM102.117 69.3784C102.117 84.565 92.1504 98.6127 78.6667 102.903C65.1829 98.6127 55.2167 84.603 55.2167 69.3784V51.534L78.6667 42.9915L102.117 51.534V69.3784Z" fill="#D4AE37"/>
<g clip-path="url(#clip1_6_28)">
<path d="M42.9333 39.3333L78.6667 25.9333L114.4 39.3333" stroke="#D4AF37" stroke-width="7"/>
</g>
</g>
<defs>
<clipPath id="clip0_6_28">
<rect width="93.8" height="93.8" fill="white" transform="translate(34 17)"/>
</clipPath>
<clipPath id="clip1_6_28">
<rect width="62.5333" height="26.8" fill="white" transform="translate(47.4 17)"/>
</clipPath>
</defs>
</svg>
