<?xml version="1.0" encoding="UTF-8" standalone="no"?><!DOCTYPE svg PUBLIC "-//W3C//DTD SVG 1.1//EN" "http://www.w3.org/Graphics/SVG/1.1/DTD/svg11.dtd"><svg width="100%" height="100%" viewBox="0 0 320 110" version="1.1" xmlns="http://www.w3.org/2000/svg" xmlns:xlink="http://www.w3.org/1999/xlink" xml:space="preserve" xmlns:serif="http://www.serif.com/" style="fill-rule:evenodd;clip-rule:evenodd;stroke-linejoin:round;stroke-miterlimit:2;"><rect id="imag_blue" x="0" y="-0" width="320" height="110" style="fill:none;"/><g><g><path d="M97.99,32.899l9.652,0l0,21.708l25.087,0l0,-21.708l9.654,0l0,50.328l-9.654,0l0,-20.65l-25.087,0l0,20.65l-9.652,0l0,-50.328Z" style="fill:#001f3f;fill-rule:nonzero;"/><path d="M177.625,32.314c3.779,0 7.295,0.647 10.546,1.941c3.252,1.294 6.093,3.115 8.523,5.463c2.43,2.348 4.328,5.074 5.694,8.179c1.366,3.104 2.049,6.468 2.049,10.089c0,3.621 -0.683,7.008 -2.049,10.161c-1.366,3.153 -3.264,5.905 -5.694,8.256c-2.43,2.352 -5.271,4.186 -8.523,5.504c-3.252,1.318 -6.767,1.977 -10.546,1.977c-3.779,0 -7.294,-0.659 -10.546,-1.977c-3.252,-1.318 -6.093,-3.153 -8.523,-5.504c-2.431,-2.352 -4.329,-5.102 -5.694,-8.251c-1.366,-3.149 -2.049,-6.538 -2.049,-10.166c0,-3.629 0.683,-7.005 2.049,-10.13c1.366,-3.125 3.264,-5.85 5.694,-8.174c2.431,-2.324 5.272,-4.133 8.523,-5.427c3.252,-1.294 6.767,-1.941 10.546,-1.941Zm0.093,8.143c-2.341,0 -4.541,0.443 -6.598,1.33c-2.057,0.887 -3.875,2.129 -5.453,3.728c-1.578,1.599 -2.809,3.459 -3.692,5.581c-0.883,2.122 -1.325,4.422 -1.325,6.901c0,2.472 0.452,4.782 1.356,6.932c0.904,2.149 2.146,4.034 3.728,5.653c1.581,1.619 3.399,2.884 5.453,3.795c2.054,0.911 4.231,1.366 6.531,1.366c2.3,0 4.474,-0.455 6.52,-1.366c2.047,-0.911 3.837,-2.175 5.37,-3.795c1.533,-1.619 2.738,-3.504 3.614,-5.653c0.876,-2.149 1.314,-4.46 1.314,-6.932c0,-2.478 -0.438,-4.779 -1.314,-6.901c-0.876,-2.122 -2.081,-3.982 -3.614,-5.581c-1.533,-1.599 -3.324,-2.841 -5.37,-3.728c-2.047,-0.887 -4.22,-1.33 -6.52,-1.33Z" style="fill:#001f3f;fill-rule:nonzero;"/><path d="M212.868,32.899l9.652,0l0,42.123l21.668,0l0,8.205l-31.32,0l0,-50.328Z" style="fill:#001f3f;fill-rule:nonzero;"/><path d="M274.645,32.314c3.779,0 7.295,0.647 10.546,1.941c3.252,1.294 6.093,3.115 8.523,5.463c2.43,2.348 4.328,5.074 5.694,8.179c1.366,3.104 2.049,6.468 2.049,10.089c0,3.621 -0.683,7.008 -2.049,10.161c-1.366,3.153 -3.264,5.905 -5.694,8.256c-2.43,2.352 -5.271,4.186 -8.523,5.504c-3.252,1.318 -6.767,1.977 -10.546,1.977c-3.779,0 -7.294,-0.659 -10.546,-1.977c-3.252,-1.318 -6.093,-3.153 -8.523,-5.504c-2.431,-2.352 -4.329,-5.102 -5.694,-8.251c-1.366,-3.149 -2.049,-6.538 -2.049,-10.166c0,-3.629 0.683,-7.005 2.049,-10.13c1.366,-3.125 3.264,-5.85 5.694,-8.174c2.431,-2.324 5.272,-4.133 8.523,-5.427c3.252,-1.294 6.767,-1.941 10.546,-1.941Zm0.093,8.143c-2.341,0 -4.541,0.443 -6.598,1.33c-2.057,0.887 -3.875,2.129 -5.453,3.728c-1.578,1.599 -2.809,3.459 -3.692,5.581c-0.883,2.122 -1.325,4.422 -1.325,6.901c0,2.472 0.452,4.782 1.356,6.932c0.904,2.149 2.146,4.034 3.728,5.653c1.581,1.619 3.399,2.884 5.453,3.795c2.054,0.911 4.231,1.366 6.531,1.366c2.3,0 4.474,-0.455 6.52,-1.366c2.047,-0.911 3.837,-2.175 5.37,-3.795c1.533,-1.619 2.738,-3.504 3.614,-5.653c0.876,-2.149 1.314,-4.46 1.314,-6.932c0,-2.478 -0.438,-4.779 -1.314,-6.901c-0.876,-2.122 -2.081,-3.982 -3.614,-5.581c-1.533,-1.599 -3.324,-2.841 -5.37,-3.728c-2.047,-0.887 -4.22,-1.33 -6.52,-1.33Z" style="fill:#001f3f;fill-rule:nonzero;"/></g><g><g><clipPath id="_clip1"><rect x="23.889" y="10.115" width="58.2" height="88.817"/></clipPath><g clip-path="url(#_clip1)"><path d="M52.937,25.939l29.053,10.584l0,21.485c0,17.816 -12.384,34.432 -29.053,38.489c-16.669,-4.057 -29.053,-20.673 -29.053,-38.489l0,-21.485l29.053,-10.584Zm-0,8.869l-20.72,7.548l0,15.651c0,13.3 8.631,25.858 20.72,29.829c12.088,-3.971 20.719,-16.529 20.719,-29.829l0,-15.651l-20.72,-7.548Z" style="fill:#001f3f;"/><path d="M87.331,26.033l-2.852,7.83l-31.542,-11.49l-31.542,11.49l-2.852,-7.83l34.394,-12.529l34.394,12.529Z" style="fill:#001f3f;"/></g></g></g></g></svg>