<svg width="81" height="30" viewBox="0 0 81 30" fill="none" xmlns="http://www.w3.org/2000/svg">
<rect width="80.1149" height="30" fill="#001F3F"/>
<path d="M27.6113 9.8H30.1393V14.504H35.2113V9.8H37.7393V21H35.2113V16.536H30.1393V21H27.6113V9.8ZM45.4211 9.64C46.2744 9.64 47.0637 9.784 47.7891 10.072C48.5251 10.36 49.1651 10.7653 49.7091 11.288C50.2531 11.8107 50.6744 12.4187 50.9731 13.112C51.2824 13.8053 51.4371 14.5627 51.4371 15.384C51.4371 16.1947 51.2824 16.952 50.9731 17.656C50.6744 18.36 50.2531 18.9787 49.7091 19.512C49.1651 20.0347 48.5251 20.4453 47.7891 20.744C47.0637 21.032 46.2744 21.176 45.4211 21.176C44.5677 21.176 43.7731 21.032 43.0371 20.744C42.3117 20.4453 41.6771 20.0347 41.1331 19.512C40.5891 18.9787 40.1624 18.36 39.8531 17.656C39.5544 16.952 39.4051 16.1947 39.4051 15.384C39.4051 14.5627 39.5544 13.8053 39.8531 13.112C40.1624 12.408 40.5891 11.8 41.1331 11.288C41.6771 10.7653 42.3117 10.36 43.0371 10.072C43.7731 9.784 44.5677 9.64 45.4211 9.64ZM45.4531 11.768C44.9837 11.768 44.5357 11.8587 44.1091 12.04C43.6931 12.2213 43.3251 12.4773 43.0051 12.808C42.6957 13.1387 42.4504 13.5227 42.2691 13.96C42.0877 14.3973 41.9971 14.872 41.9971 15.384C41.9971 15.896 42.0877 16.376 42.2691 16.824C42.4504 17.2613 42.7011 17.6507 43.0211 17.992C43.3411 18.3227 43.7091 18.584 44.1251 18.776C44.5411 18.9573 44.9837 19.048 45.4531 19.048C45.9224 19.048 46.3597 18.9573 46.7651 18.776C47.1811 18.584 47.5437 18.3227 47.8531 17.992C48.1624 17.6507 48.4024 17.2613 48.5731 16.824C48.7544 16.376 48.8451 15.896 48.8451 15.384C48.8451 14.872 48.7544 14.3973 48.5731 13.96C48.4024 13.5227 48.1624 13.1387 47.8531 12.808C47.5437 12.4773 47.1811 12.2213 46.7651 12.04C46.3597 11.8587 45.9224 11.768 45.4531 11.768ZM53.0957 9.8H55.6237V18.872H60.4077V21H53.0957V9.8ZM67.1398 9.64C67.9931 9.64 68.7825 9.784 69.5078 10.072C70.2438 10.36 70.8838 10.7653 71.4278 11.288C71.9718 11.8107 72.3931 12.4187 72.6918 13.112C73.0011 13.8053 73.1558 14.5627 73.1558 15.384C73.1558 16.1947 73.0011 16.952 72.6918 17.656C72.3931 18.36 71.9718 18.9787 71.4278 19.512C70.8838 20.0347 70.2438 20.4453 69.5078 20.744C68.7825 21.032 67.9931 21.176 67.1398 21.176C66.2865 21.176 65.4918 21.032 64.7558 20.744C64.0305 20.4453 63.3958 20.0347 62.8518 19.512C62.3078 18.9787 61.8811 18.36 61.5718 17.656C61.2731 16.952 61.1238 16.1947 61.1238 15.384C61.1238 14.5627 61.2731 13.8053 61.5718 13.112C61.8811 12.408 62.3078 11.8 62.8518 11.288C63.3958 10.7653 64.0305 10.36 64.7558 10.072C65.4918 9.784 66.2865 9.64 67.1398 9.64ZM67.1718 11.768C66.7025 11.768 66.2545 11.8587 65.8278 12.04C65.4118 12.2213 65.0438 12.4773 64.7238 12.808C64.4145 13.1387 64.1691 13.5227 63.9878 13.96C63.8065 14.3973 63.7158 14.872 63.7158 15.384C63.7158 15.896 63.8065 16.376 63.9878 16.824C64.1691 17.2613 64.4198 17.6507 64.7398 17.992C65.0598 18.3227 65.4278 18.584 65.8438 18.776C66.2598 18.9573 66.7025 19.048 67.1718 19.048C67.6411 19.048 68.0785 18.9573 68.4838 18.776C68.8998 18.584 69.2625 18.3227 69.5718 17.992C69.8811 17.6507 70.1211 17.2613 70.2918 16.824C70.4731 16.376 70.5638 15.896 70.5638 15.384C70.5638 14.872 70.4731 14.3973 70.2918 13.96C70.1211 13.5227 69.8811 13.1387 69.5718 12.808C69.2625 12.4773 68.8998 12.2213 68.4838 12.04C68.0785 11.8587 67.6411 11.768 67.1718 11.768Z" fill="#D4AF37"/>
<path d="M16 8L9 10.55V15.7265C9 20.019 11.9838 24.0225 16 25C20.0163 24.0225 23 20.019 23 15.7265V10.55L16 8ZM21.25 15.7265C21.25 19.1265 19.0188 22.2715 16 23.232C12.9813 22.2715 10.75 19.135 10.75 15.7265V11.7315L16 9.819L21.25 11.7315V15.7265Z" fill="#D4AE37"/>
<g clip-path="url(#clip0_5_14)">
<path d="M8 9L16 6L24 9" stroke="#D4AF37" stroke-width="1.5"/>
</g>
<defs>
<clipPath id="clip0_5_14">
<rect width="14" height="6" fill="white" transform="translate(9 4)"/>
</clipPath>
</defs>
</svg>
