<svg width="81" height="31" viewBox="0 0 81 31" fill="none" xmlns="http://www.w3.org/2000/svg">
<path d="M27.6633 10.0807L30.1913 10.0672L30.2165 14.7711L35.2884 14.744L35.2632 10.04L37.7912 10.0265L37.8511 21.2264L35.3231 21.2399L35.2992 16.7759L30.2273 16.8031L30.2512 21.267L27.7232 21.2805L27.6633 10.0807ZM45.472 9.82544C46.3253 9.82087 47.1154 9.96065 47.8422 10.2448C48.5798 10.5288 49.2219 10.9307 49.7687 11.4505C50.3155 11.9702 50.7401 12.576 51.0425 13.2677C51.3555 13.9594 51.5142 14.7159 51.5186 15.5372C51.5229 16.3478 51.3723 17.106 51.0668 17.8116C50.7719 18.5172 50.3538 19.1381 49.8127 19.6744C49.2715 20.1999 48.6337 20.614 47.8993 20.9166C47.1755 21.2085 46.387 21.3567 45.5337 21.3613C44.6803 21.3658 43.8849 21.2261 43.1474 20.942C42.4205 20.6472 41.7836 20.24 41.2368 19.7202C40.69 19.1898 40.26 18.5734 39.9469 17.8711C39.6445 17.1687 39.4911 16.4122 39.4868 15.6015C39.4824 14.7802 39.6277 14.0221 39.9226 13.3272C40.2282 12.6215 40.6516 12.0113 41.1928 11.4963C41.734 10.9708 42.3665 10.5621 43.0903 10.2702C43.8248 9.97825 44.6186 9.83 45.472 9.82544ZM45.5153 11.9532C45.046 11.9557 44.5985 12.0488 44.1728 12.2324C43.7578 12.416 43.3912 12.6739 43.0729 13.0063C42.7654 13.3386 42.5221 13.7239 42.3431 14.1622C42.1641 14.6005 42.076 15.0757 42.0787 15.5877C42.0815 16.0997 42.1747 16.5792 42.3584 17.0262C42.5421 17.4625 42.7949 17.8505 43.1167 18.1902C43.4384 18.5191 43.8078 18.7785 44.2249 18.9682C44.6418 19.1473 45.085 19.2356 45.5543 19.2331C46.0236 19.2306 46.4605 19.1376 46.8648 18.9541C47.2798 18.7599 47.641 18.4966 47.9486 18.1643C48.2561 17.8213 48.494 17.4307 48.6623 16.9925C48.8413 16.5435 48.9294 16.063 48.9266 15.551C48.9239 15.039 48.8307 14.5649 48.647 14.1285C48.474 13.6921 48.232 13.3094 47.9209 12.9804C47.6098 12.6514 47.2457 12.3973 46.8288 12.2182C46.4225 12.0391 45.9847 11.9507 45.5153 11.9532ZM53.1473 9.94438L55.6753 9.93086L55.7238 19.0027L60.5078 18.9771L60.5191 21.1051L53.2072 21.1442L53.1473 9.94438ZM67.1904 9.70927C68.0437 9.7047 68.8338 9.84448 69.5607 10.1286C70.2982 10.4127 70.9404 10.8146 71.4872 11.3343C72.0339 11.8541 72.4585 12.4598 72.7609 13.1515C73.0739 13.8432 73.2327 14.5997 73.237 15.421C73.2414 16.2317 73.0908 16.9898 72.7852 17.6955C72.4903 18.401 72.0723 19.022 71.5311 19.5582C70.99 20.0838 70.3522 20.4978 69.6178 20.8004C68.894 21.0923 68.1054 21.2405 67.2521 21.2451C66.3988 21.2497 65.6034 21.1099 64.8658 20.8259C64.1389 20.5311 63.5021 20.1238 62.9553 19.6041C62.4084 19.0736 61.9785 18.4573 61.6654 17.7549C61.3629 17.0525 61.2096 16.296 61.2052 15.4854C61.2008 14.664 61.3461 13.9059 61.6411 13.211C61.9466 12.5054 62.37 11.8951 62.9113 11.3802C63.4525 10.8546 64.085 10.4459 64.8088 10.154C65.5432 9.86208 66.3371 9.71383 67.1904 9.70927ZM67.2338 11.8371C66.7645 11.8396 66.317 11.9326 65.8913 12.1162C65.4762 12.2998 65.1096 12.5578 64.7914 12.8901C64.4838 13.2225 64.2405 13.6078 64.0616 14.0461C63.8826 14.4844 63.7944 14.9595 63.7972 15.4715C63.7999 15.9835 63.8931 16.463 64.0769 16.91C64.2605 17.3464 64.5133 17.7344 64.8351 18.074C65.1569 18.4029 65.5263 18.6623 65.9433 18.8521C66.3603 19.0312 66.8034 19.1195 67.2727 19.117C67.7421 19.1145 68.1789 19.0214 68.5833 18.8379C68.9982 18.6437 69.3595 18.3805 69.667 18.0481C69.9745 17.7052 70.2125 17.3145 70.3808 16.8763C70.5597 16.4273 70.6478 15.9469 70.6451 15.4349C70.6423 14.9229 70.5491 14.4487 70.3655 14.0123C70.1925 13.5759 69.9504 13.1932 69.6393 12.8642C69.3282 12.5352 68.9642 12.2811 68.5472 12.102C68.1409 11.9229 67.7031 11.8346 67.2338 11.8371Z" fill="#D4AF37"/>
<g clip-path="url(#clip0_3_3)">
<path d="M16.0426 8.34284L9.0563 10.9302L9.08399 16.1067C9.10695 20.3991 12.1121 24.3866 16.1335 25.3426C20.1445 24.3436 23.1068 20.3242 23.0838 16.0318L23.0561 10.8554L16.0426 8.34284ZM21.3338 16.0411C21.352 19.4411 19.1376 22.598 16.124 23.5746C13.1002 22.6303 10.8522 19.5058 10.834 16.0973L10.8126 12.1024L16.0523 10.1618L21.3124 12.0462L21.3338 16.0411Z" fill="#D4AE37"/>
<g clip-path="url(#clip1_3_3)">
<path d="M8.04803 9.38561L16.0319 6.34286L24.0478 9.30003" stroke="#D4AF37" stroke-width="1.5"/>
</g>
</g>
<defs>
<clipPath id="clip0_3_3">
<rect width="21" height="21" fill="white" transform="translate(6.0213 4.39639) rotate(-0.306466)"/>
</clipPath>
<clipPath id="clip1_3_3">
<rect width="14" height="6" fill="white" transform="translate(9.02127 4.38034) rotate(-0.306466)"/>
</clipPath>
</defs>
</svg>
