<?xml version="1.0" encoding="UTF-8" standalone="no"?><!DOCTYPE svg PUBLIC "-//W3C//DTD SVG 1.1//EN" "http://www.w3.org/Graphics/SVG/1.1/DTD/svg11.dtd"><svg width="100%" height="100%" viewBox="0 0 85 110" version="1.1" xmlns="http://www.w3.org/2000/svg" xmlns:xlink="http://www.w3.org/1999/xlink" xml:space="preserve" xmlns:serif="http://www.serif.com/" style="fill-rule:evenodd;clip-rule:evenodd;stroke-linejoin:round;stroke-miterlimit:2;"><rect id="icon_black" x="0" y="0" width="85" height="110" style="fill:none;"/><g><g><g><clipPath id="_clip1"><rect x="13.453" y="10.115" width="58.2" height="88.817"/></clipPath><g clip-path="url(#_clip1)"><path d="M42.5,25.939l29.053,10.584l0,21.485c0,17.816 -12.384,34.432 -29.053,38.489c-16.669,-4.057 -29.053,-20.673 -29.053,-38.489l0,-21.485l29.053,-10.584Zm-0,8.869l-20.72,7.548l0,15.651c0,13.3 8.631,25.858 20.72,29.829c12.088,-3.971 20.719,-16.529 20.719,-29.829l0,-15.651l-20.72,-7.548Z"/><path d="M76.894,26.033l-2.852,7.83l-31.542,-11.49l-31.542,11.49l-2.852,-7.83l34.394,-12.529l34.394,12.529Z"/></g></g></g></g></svg>